<?xml version="1.0" standalone="no"?>
<!DOCTYPE svg PUBLIC "-//W3C//DTD SVG 20010904//EN"
 "http://www.w3.org/TR/2001/REC-SVG-20010904/DTD/svg10.dtd">
<svg version="1.0" xmlns="http://www.w3.org/2000/svg"
 width="170.000000pt" height="170.000000pt" viewBox="0 0 170.000000 170.000000"
 preserveAspectRatio="xMidYMid meet">
<metadata>
Created by potrace 1.11, written by Peter Selinger 2001-2013
</metadata>
<g transform="translate(0.000000,170.000000) scale(0.100000,-0.100000)"
fill="#000000" stroke="none">
<path d="M72 1477 c-39 -40 -72 -81 -72 -92 0 -15 3 -16 12 -7 38 38 38 32 38
-578 l0 -590 -25 -10 c-14 -5 -25 -16 -25 -25 0 -12 14 -15 74 -15 105 0 106
2 106 154 l0 122 109 253 c60 138 117 261 127 272 27 30 65 21 87 -21 27 -52
20 -155 -13 -204 -30 -44 -99 -92 -154 -107 -51 -14 -65 -25 -83 -67 -11 -27
-12 -41 -3 -68 13 -39 29 -42 89 -18 54 21 99 15 123 -17 11 -14 30 -66 42
-117 40 -154 67 -180 189 -181 65 -1 75 17 19 31 -36 9 -32 1 -71 181 -30 136
-56 199 -87 211 -28 11 -94 6 -131 -9 -51 -21 -55 -18 -8 7 22 11 67 48 100
82 100 101 144 223 125 342 -12 74 -39 126 -73 142 -24 12 -33 11 -65 -5 -44
-22 -70 -70 -203 -378 -50 -116 -95 -214 -100 -220 -5 -5 -9 184 -9 482 0 270
-3 498 -6 507 -12 30 -40 16 -112 -57z"/>
<path d="M1485 1440 c-54 -54 -96 -102 -92 -106 3 -4 20 6 38 20 17 15 37 25
43 23 7 -2 12 -48 14 -130 l3 -126 -48 -3 c-59 -4 -59 -19 -1 -33 l43 -11 6
-324 c6 -342 11 -386 59 -479 21 -42 99 -116 130 -124 18 -5 20 0 20 43 0 30
-7 61 -19 82 -46 77 -54 137 -58 456 -3 166 -2 313 1 326 4 17 15 25 41 30 47
9 48 36 0 36 l-35 0 0 188 c0 203 -4 232 -29 232 -9 0 -61 -45 -116 -100z"/>
<path d="M1148 1142 c-14 -9 -45 -39 -68 -65 -57 -64 -77 -63 -176 13 -43 33
-81 55 -83 49 -4 -14 112 -132 154 -155 32 -17 34 -17 69 5 19 12 45 36 57 52
25 36 51 37 78 3 59 -76 49 -256 -18 -323 -34 -34 -64 -26 -128 32 -68 63 -92
77 -130 77 -107 0 -171 -151 -160 -375 11 -223 87 -336 207 -310 17 4 57 31
91 62 46 43 70 77 104 147 l45 91 0 -115 c0 -72 5 -124 13 -140 12 -24 17 -25
110 -28 76 -2 97 0 97 11 0 7 -17 18 -37 23 l-38 9 -3 198 c-1 108 -6 197 -11
197 -5 0 -31 -10 -60 -23 -50 -22 -52 -24 -110 -143 -44 -88 -71 -131 -105
-162 -52 -48 -63 -50 -99 -22 -42 33 -62 101 -62 215 0 114 20 181 62 215 38
29 74 25 127 -16 84 -64 155 -55 212 27 36 52 54 121 54 204 0 121 -39 219
-100 250 -38 19 -59 19 -92 -3z"/>
</g>
</svg>
